<svg width="350" height="167.38946808050198" viewBox="0 0 350 167.38946808050198" class="css-1j8o68f"><defs id="SvgjsDefs5203"></defs><g id="SvgjsG5204" featurekey="nameFeature-0" transform="matrix(4.251700696033966,0,0,4.251700696033966,0,-45.91838049232765)" fill="#111111"><path d="M9.4 11.399999999999999 l0 1.16 l-4.08 0 l0 27.44 l-1.16 0 l0 -27.44 l-4.16 0 l0 -1.16 l9.4 0 z M16.799999999999997 28.64 l1.16 0 l0 11.36 l-1.16 0 l0 -2.24 c-1.04 1.36 -2.68 2.24 -4.52 2.24 c-3.16 0 -5.68 -2.56 -5.68 -5.68 c0 -3.16 2.52 -5.68 5.68 -5.68 c1.84 0 3.48 0.84 4.52 2.2 l0 -2.2 z M12.28 38.8 c2.48 0 4.52 -2 4.52 -4.48 c0 -2.52 -2.04 -4.52 -4.52 -4.52 s-4.52 2 -4.52 4.52 c0 2.48 2.04 4.48 4.52 4.48 z M29.76 28.64 l1.16 0 l0 5.68 c0 2.24 -1.32 4.16 -3.16 5.08 c0.52 0.28 1.04 0.64 1.48 1.08 c2.24 2.2 2.24 5.8 0 8.04 c-2.2 2.2 -5.8 2.2 -8.04 0 l0.84 -0.84 c1.76 1.76 4.64 1.76 6.4 0 s1.76 -4.6 0 -6.36 s-4.64 -1.76 -6.4 0 l-0.84 -0.84 c0.48 -0.44 1 -0.8 1.52 -1.08 c-1.88 -0.92 -3.16 -2.88 -3.16 -5.08 c0 -3.16 2.52 -5.68 5.68 -5.68 c1.84 0 3.48 0.84 4.52 2.2 l0 -2.2 z M25.240000000000002 38.8 c2.48 0 4.52 -2 4.52 -4.48 c0 -2.52 -2.04 -4.52 -4.52 -4.52 s-4.52 2 -4.52 4.52 c0 2.48 2.04 4.48 4.52 4.48 z M46.52 40.56 c-2.36 0 -4.6 -1.12 -6 -3.04 l0.92 -0.68 c1.2 1.6 3.08 2.56 5.08 2.56 c3.4 0 6.2 -2.8 6.2 -6.24 c0 -3.56 -2.72 -6.16 -5.36 -8.72 c-2.56 -2.4 -5.16 -4.92 -5.16 -8.24 c0 -2.96 2.44 -5.4 5.4 -5.4 c1.72 0 3.36 0.84 4.4 2.24 l-0.96 0.68 c-0.8 -1.08 -2.08 -1.76 -3.44 -1.76 c-2.32 0 -4.24 1.92 -4.24 4.24 c0 2.8 2.32 5.04 4.8 7.4 c2.8 2.72 5.72 5.52 5.72 9.56 c0 4.08 -3.32 7.4 -7.36 7.4 z M66.24000000000001 28.64 l0 1.16 c-1.6 0 -3.16 0.4 -4.48 1.12 l4.48 9.08 l-1.28 0 l-4.2 -8.48 c-2.48 1.76 -4.12 4.64 -4.12 7.88 l0 0.6 l-1.16 0 l0 -28.6 l1.16 0 l0 23.12 c1.76 -3.48 5.4 -5.88 9.6 -5.88 z M68.44 40 l0 -11.36 l1.16 0 l0 11.36 l-1.16 0 z M69 24 c0.68 0 1.2 0.52 1.2 1.16 s-0.52 1.16 -1.2 1.16 c-0.64 0 -1.16 -0.52 -1.16 -1.16 s0.52 -1.16 1.16 -1.16 z M71.8 40 l0 -28.6 l1.16 0 l0 28.6 l-1.16 0 z M74.56 40 l0 -28.6 l1.16 0 l0 28.6 l-1.16 0 z M79.24000000000001 40.12 l0 -1.16 c1.08 0 1.92 -0.84 1.92 -1.92 c0 -1.16 -0.88 -2 -1.84 -2.92 c-1 -0.96 -2 -1.92 -2 -3.28 c0 -1.32 1.04 -2.36 2.36 -2.36 l0 1.16 c-0.68 0 -1.2 0.52 -1.2 1.2 c0 0.88 0.8 1.64 1.64 2.44 c1.04 1 2.2 2.12 2.2 3.76 c0 1.72 -1.36 3.08 -3.08 3.08 z"></path></g></svg>
